<svg width="897" height="784" viewBox="0 0 897 784" fill="none" xmlns="http://www.w3.org/2000/svg">
<circle cx="113" cy="160" r="31" fill="white"/>
<circle cx="31" cy="352" r="31" fill="white"/>
<circle cx="421" cy="31" r="31" fill="white"/>
<circle cx="82" cy="615" r="31" fill="white"/>
<circle cx="508" cy="575" r="22" fill="white"/>
<line x1="130.04" y1="150.692" x2="404.04" y2="36.6918" stroke="white" stroke-width="5"/>
<line y1="-2.5" x2="398.339" y2="-2.5" transform="matrix(0.89357 0.448923 0.325765 -0.945451 113 159)" stroke="white" stroke-width="5"/>
<line x1="471.469" y1="337.609" x2="510.469" y2="583.609" stroke="white" stroke-width="5"/>
<line x1="33.4543" y1="350.524" x2="84.4543" y2="613.524" stroke="white" stroke-width="5"/>
<circle cx="205" cy="461" r="31" fill="white"/>
<circle cx="672" cy="714" r="31" fill="white"/>
<circle cx="641" cy="129" r="31" fill="white"/>
<line x1="32.3272" y1="349.881" x2="206.327" y2="458.881" stroke="white" stroke-width="5"/>
<line x1="83.0878" y1="612.749" x2="352.088" y2="742.749" stroke="white" stroke-width="5"/>
<line x1="509.837" y1="576.696" x2="352.837" y2="746.696" stroke="white" stroke-width="5"/>
<line x1="672.24" y1="716.488" x2="351.24" y2="747.488" stroke="white" stroke-width="5"/>
<line x1="507.12" y1="577.34" x2="204.12" y2="463.34" stroke="white" stroke-width="5"/>
<line x1="509.616" y1="573.093" x2="673.616" y2="712.093" stroke="white" stroke-width="5"/>
<line x1="506.824" y1="572.794" x2="778.824" y2="427.794" stroke="white" stroke-width="5"/>
<line x1="860.298" y1="248.985" x2="782.298" y2="430.985" stroke="white" stroke-width="5"/>
<line x1="856.798" y1="250.192" x2="639.798" y2="131.192" stroke="white" stroke-width="5"/>
<line x1="467.07" y1="336.411" x2="639.07" y2="127.411" stroke="white" stroke-width="5"/>
<line x1="422.017" y1="28.7163" x2="642.017" y2="126.716" stroke="white" stroke-width="5"/>
<line x1="858.564" y1="250.436" x2="469.564" y2="340.436" stroke="white" stroke-width="5"/>
<line x1="203.944" y1="458.734" x2="467.944" y2="335.734" stroke="white" stroke-width="5"/>
<line x1="782.337" y1="430.889" x2="674.337" y2="714.889" stroke="white" stroke-width="5"/>
<line x1="207.223" y1="459.857" x2="353.223" y2="743.857" stroke="white" stroke-width="5"/>
<line x1="28.7009" y1="350.018" x2="110.701" y2="158.018" stroke="white" stroke-width="5"/>
<circle cx="469" cy="338" r="39" fill="white"/>
<circle cx="858" cy="248" r="39" fill="white"/>
<circle cx="351" cy="745" r="39" fill="white"/>
<circle cx="780" cy="430" r="39" fill="white"/>
</svg>
